<svg width="20" height="20" viewBox="0 0 20 20" fill="none" xmlns="http://www.w3.org/2000/svg">
<path d="M6.20222 4.45831C6.73502 4.45831 7.22682 4.49954 7.67763 4.62321C8.12846 4.70566 8.49729 4.87056 8.82521 5.07669C9.15304 5.28281 9.39896 5.57138 9.56287 5.9424C9.72679 6.31343 9.80879 6.7669 9.80879 7.2616C9.80879 7.83875 9.68587 8.3335 9.39896 8.7045C9.15304 9.0755 8.74321 9.40533 8.25141 9.65266C8.94812 9.85875 9.48087 10.2298 9.80879 10.7245C10.1366 11.2192 10.3415 11.8376 10.3415 12.5384C10.3415 13.1156 10.2186 13.6102 10.0137 14.0225C9.80879 14.4347 9.48087 14.8057 9.11204 15.0532C8.74321 15.3005 8.29239 15.5066 7.80059 15.6302C7.30878 15.7539 6.81698 15.8364 6.32517 15.8364H0.833374V4.45831H6.20222ZM5.87436 9.0755C6.32517 9.0755 6.69403 8.95183 6.98092 8.74575C7.2678 8.53958 7.39075 8.16855 7.39075 7.71508C7.39075 7.46773 7.34977 7.22038 7.2678 7.05548C7.18583 6.89058 7.06288 6.7669 6.89895 6.64323C6.73502 6.56078 6.57108 6.47833 6.36616 6.4371C6.16124 6.39588 5.95632 6.39588 5.71042 6.39588H3.33337V9.0755H5.87436ZM5.99731 13.9401C6.24321 13.9401 6.48912 13.8988 6.69403 13.8576C6.89895 13.8164 7.10387 13.7339 7.2678 13.6102C7.43173 13.4866 7.55468 13.3629 7.67763 13.1567C7.75961 12.9507 7.84157 12.7033 7.84157 12.4147C7.84157 11.8376 7.67764 11.4253 7.34977 11.1367C7.0219 10.8894 6.57108 10.7657 6.03829 10.7657H3.33337V13.9401H5.99731ZM13.9071 13.8988C14.235 14.2287 14.7268 14.3935 15.3825 14.3935C15.8334 14.3935 16.2432 14.2698 16.571 14.0637C16.899 13.8164 17.1039 13.569 17.1859 13.3217H19.194C18.8661 14.3111 18.3744 15.0119 17.7186 15.4654C17.0629 15.8777 16.2842 16.125 15.3415 16.125C14.6858 16.125 14.112 16.0013 13.5793 15.7952C13.0465 15.5891 12.6366 15.3005 12.2678 14.8882C11.899 14.5172 11.612 14.0637 11.4481 13.5278C11.2432 12.9919 11.1612 12.4147 11.1612 11.7552C11.1612 11.1367 11.2432 10.5596 11.4481 10.0237C11.653 9.48775 11.94 9.03425 12.3088 8.622C12.6776 8.251 13.1285 7.9212 13.6203 7.71508C14.153 7.50895 14.6858 7.38528 15.3415 7.38528C16.0383 7.38528 16.653 7.50896 17.1859 7.79753C17.7186 8.08611 18.1285 8.41591 18.4563 8.91058C18.7842 9.36408 19.0301 9.9 19.194 10.4772C19.276 11.0543 19.317 11.6314 19.276 12.2911H13.3334C13.3334 12.9507 13.5793 13.569 13.9071 13.8988ZM16.4891 9.57025C16.2022 9.28166 15.7514 9.11675 15.2186 9.11675C14.8498 9.11675 14.5629 9.19916 14.317 9.32283C14.071 9.4465 13.9071 9.61141 13.7432 9.77633C13.5793 9.94125 13.4973 10.1473 13.4563 10.3535C13.4154 10.5596 13.3744 10.7245 13.3744 10.8894H17.0629C16.981 10.271 16.776 9.85875 16.4891 9.57025ZM12.8825 5.24158H17.4727V6.35465H12.8825V5.24158Z" fill="white"/>
</svg>
