<?xml version="1.0" encoding="UTF-8"?>
<svg version="1.1" xmlns="http://www.w3.org/2000/svg" width="82" height="82">
<path d="M0 0 C7.50436653 5.37232428 12.50479019 11.01916075 14.75 20 C15.6080116 30.29613921 14.44707949 38.94034261 7.7421875 47.1796875 C1.66567115 53.52869337 -4.48782068 57.19452617 -13.33276367 57.43164062 C-22.78291573 57.45515578 -29.74155686 56.78875696 -37.01171875 50.16796875 C-43.77092874 42.98365122 -47.36887073 35.17282687 -47.21875 25.24609375 C-46.26043874 15.40629063 -41.84252965 7.89757583 -34.33203125 1.61328125 C-23.6479949 -5.77785278 -11.32462535 -6.00865612 0 0 Z M-20 12 C-21.2188121 15.55672179 -21.2188121 15.55672179 -22 19 C-23.0725 18.938125 -24.145 18.87625 -25.25 18.8125 C-29.10866187 19.00543309 -30.28817788 19.39665076 -33 22 C-32.65315014 26.43469187 -32.65315014 26.43469187 -30.0625 29.875 C-28.09892952 31.15961738 -28.09892952 31.15961738 -26 31 C-26.33 31.53625 -26.66 32.0725 -27 32.625 C-28.24964598 35.5929092 -28.27756584 37.80799279 -28 41 C-26.18506707 43.22081212 -26.18506707 43.22081212 -23.625 43.3125 C-20.91546882 43.22706108 -20.91546882 43.22706108 -19 41.375 C-18.34 40.92125 -17.68 40.4675 -17 40 C-14.60736593 40.66771183 -12.77902615 41.22097385 -11 43 C-8.54190002 43.2500773 -8.54190002 43.2500773 -6 43 C-3.69113681 41.1308634 -3.69113681 41.1308634 -3.8125 38.125 C-3.96595096 35.56748401 -4.2512197 33.43353596 -5 31 C-4.01 30.443125 -3.02 29.88625 -2 29.3125 C1.1985785 27.34494451 1.1985785 27.34494451 1.625 24.4375 C1.17477639 21.93131251 1.17477639 21.93131251 -0.5625 20.1875 C-3.80428616 18.60816828 -6.44288878 18.79478204 -10 19 C-10.3403125 17.329375 -10.3403125 17.329375 -10.6875 15.625 C-11.62333193 11.89303515 -11.62333193 11.89303515 -14.4375 10.4375 C-17.23185709 9.65853522 -17.23185709 9.65853522 -20 12 Z " fill="#7E7E7E" transform="translate(57,25)"/>
<path d="M0 0 C4.1519792 -0.61359299 7.87211284 -0.85653659 12 0 C15.14360155 2.9143806 16.96704961 6.26254245 19 10 C19.97664475 11.35053427 20.96894676 12.69053179 22 14 C22.66 13.34 23.32 12.68 24 12 C23.4946875 11.30132812 22.989375 10.60265625 22.46875 9.8828125 C21.8190625 8.97273437 21.169375 8.06265625 20.5 7.125 C19.8503125 6.22007812 19.200625 5.31515625 18.53125 4.3828125 C17 2 17 2 17 0 C22.329531 -0.90274365 27.77342142 -1.7535824 33 0 C37.93239702 3.86543684 41.1042389 9.5397725 44 15 C44 15.66 44 16.32 44 17 C43.01 17.17015625 42.02 17.3403125 41 17.515625 C33.76658433 18.82130231 27.43147569 20.28953326 21 24 C20.01 24.33 19.02 24.66 18 25 C17.67 25.99 17.34 26.98 17 28 C11.85662128 26.28554043 9.72643274 21.19362856 6.8125 16.8125 C6.15830078 15.86568359 5.50410156 14.91886719 4.83007812 13.94335938 C4.21197266 13.01974609 3.59386719 12.09613281 2.95703125 11.14453125 C2.38960205 10.30253174 1.82217285 9.46053223 1.23754883 8.59301758 C-0.22077709 5.53740906 -0.23084551 3.34558269 0 0 Z " fill="#7E7E7E" transform="translate(0,0)"/>
<path d="M0 0 C1.4539304 0.03304387 2.90746075 0.09241162 4.359375 0.17578125 C5.10445312 0.19833984 5.84953125 0.22089844 6.6171875 0.24414062 C8.448784 0.30284564 10.27934153 0.39252368 12.109375 0.48828125 C10.85298509 3.84061135 9.42203612 6.7923074 7.484375 9.80078125 C7.03835937 10.49816406 6.59234375 11.19554687 6.1328125 11.9140625 C5.62621094 12.69330078 5.62621094 12.69330078 5.109375 13.48828125 C6.099375 13.48828125 7.089375 13.48828125 8.109375 13.48828125 C9.09347396 11.96721109 10.06729956 10.43757057 10.96508789 8.86401367 C12.79054842 5.69881096 14.59931308 3.18386949 17.109375 0.48828125 C21.31867325 -0.62713232 24.8646178 -0.35205139 29.109375 0.48828125 C29.49054001 5.43707357 28.67407991 7.85494929 25.828125 11.88671875 C25.15136719 12.85996094 24.47460938 13.83320313 23.77734375 14.8359375 C23.06191406 15.83496094 22.34648438 16.83398438 21.609375 17.86328125 C20.89394531 18.88550781 20.17851563 19.90773438 19.44140625 20.9609375 C17.67634002 23.47909865 15.89886051 25.98744352 14.109375 28.48828125 C13.35374268 27.999646 12.59811035 27.51101074 11.81958008 27.00756836 C10.82853271 26.37085205 9.83748535 25.73413574 8.81640625 25.078125 C7.83389893 24.44511475 6.8513916 23.81210449 5.83911133 23.15991211 C3.08552565 21.38636158 3.08552565 21.38636158 -0.203125 20.05078125 C-4.20248651 17.72557107 -6.70091499 14.54123541 -8.890625 10.48828125 C-9.04837246 7.09671078 -8.05567862 5.76696475 -6.3359375 2.86328125 C-3.890625 0.48828125 -3.890625 0.48828125 0 0 Z " fill="#7E7E7E" transform="translate(52.890625,-0.48828125)"/>
<path d="M0 0 C0.66 0 1.32 0 2 0 C3.25664978 2.90600261 4 4.79604584 4 8 C7.3 8 10.6 8 14 8 C12 12 12 12 9.8125 13.1875 C7.74903236 14.83067745 7.74903236 14.83067745 7.96484375 17.1875 C8.22653411 19.48177163 8.56276489 21.733031 9 24 C8.278125 23.690625 7.55625 23.38125 6.8125 23.0625 C4.11298705 22.042684 1.87842747 21.2214175 -1 21 C-3.19038423 22.37168238 -3.19038423 22.37168238 -5 24 C-5.66 24 -6.32 24 -7 24 C-6.34 20.7 -5.68 17.4 -5 14 C-6.32 13.34 -7.64 12.68 -9 12 C-9.99 11.34 -10.98 10.68 -12 10 C-12 9.34 -12 8.68 -12 8 C-8.7 8 -5.4 8 -2 8 C-1.855625 7.236875 -1.71125 6.47375 -1.5625 5.6875 C-1 3 -1 3 0 0 Z " fill="#7E7E7E" transform="translate(40,40)"/>
</svg>
