<svg width="40" height="30" viewBox="0 0 40 30" fill="none" xmlns="http://www.w3.org/2000/svg">
<path d="M37.6777 3.79785C36.5702 5.37101 35.5296 7.09594 34.5547 8.9707L34.5479 8.9834L34.541 8.99707C33.4998 11.1535 32.8954 13.3986 32.7344 15.7266L32.6729 16.6201L33.5537 16.7793L39 17.7666V29H23.5645V20.6816C23.5645 15.4568 24.7804 11.375 27.1152 8.33984C29.4187 5.36734 32.4597 3.01085 36.2656 1.2793L37.6777 3.79785ZM15.1133 3.79883C14.0059 5.37177 12.9649 7.09626 11.9902 8.9707L11.9834 8.9834L11.9766 8.99707C10.9354 11.1534 10.3319 13.3987 10.1709 15.7266L10.1084 16.6201L10.9893 16.7793L16.4355 17.7666V29H1V20.6816C1.00003 15.4569 2.21608 11.3749 4.55078 8.33984C6.8542 5.36742 9.89535 3.01084 13.7012 1.2793L15.1133 3.79883Z" stroke="#FF5730" stroke-width="2"/>
</svg>
