<svg id="OBJECT" xmlns="http://www.w3.org/2000/svg" viewBox="0 0 32 32"><path d="M5.59,8.78A4,4,0,0,1,5.5,8a3.5,3.5,0,0,1,7,0,4,4,0,0,1-.09.78,7.87,7.87,0,0,1,3.77,3.72A8,8,0,1,0,1,9a7.94,7.94,0,0,0,.82,3.5A7.87,7.87,0,0,1,5.59,8.78Z"/><path d="M14.79,14.5a6,6,0,0,0-3.38-4,3.45,3.45,0,0,1-4.82,0,6,6,0,0,0-3.38,4,8,8,0,0,0,11.58,0Z"/><circle cx="9" cy="8" r="1.5"/><rect x="15" y="24" width="11" height="2"/><path d="M30,1H15A10,10,0,0,1,9,19c-.34,0-.67,0-1-.05V30a1,1,0,0,0,1,1H30a1,1,0,0,0,1-1V2A1,1,0,0,0,30,1ZM19.85,10H23v2H19.85Zm-5.43,8h3v2h-3ZM28,27a1,1,0,0,1-1,1H14a1,1,0,0,1-1-1V23a1,1,0,0,1,1-1H27a1,1,0,0,1,1,1Zm0-7H19.42V18H28Zm0-4H19.85V14H28Zm0-4H24.85V10H28Zm0-4H19.85V6H28Z"/></svg>