<svg width="20" height="20" viewBox="0 0 20 20" fill="none" xmlns="http://www.w3.org/2000/svg">
<path d="M16.6572 9.64302C16.5857 8.28763 16.1094 7.03956 15.3469 6.0175C15.1457 6.23675 14.8987 6.47485 14.5797 6.74301C13.8234 7.37884 12.9072 7.95258 11.8195 8.41752C11.9581 8.70885 12.0857 8.9916 12.198 9.25819L12.199 9.26044C12.221 9.31185 12.2399 9.35885 12.2767 9.45152C12.2815 9.46352 12.286 9.47477 12.2904 9.48544C13.5517 9.34352 14.8813 9.39577 16.1707 9.57044C16.3421 9.5936 16.5041 9.61794 16.6572 9.64302ZM8.83696 3.43444C8.98188 3.63853 9.13346 3.85718 9.31688 4.12817C9.82738 4.88244 10.33 5.67828 10.8003 6.49591C10.8957 6.66182 10.9891 6.82743 11.0803 6.99262C12.0994 6.59163 12.9413 6.0857 13.6198 5.52074C13.8942 5.29221 14.1152 5.07752 14.2835 4.89145C13.125 3.919 11.6309 3.33335 9.99996 3.33335C9.60329 3.33335 9.21463 3.368 8.83696 3.43444ZM3.54384 8.33131C4.02617 8.32045 4.57052 8.2912 5.24415 8.22934C6.58349 8.10634 7.95113 7.88543 9.29571 7.54397C8.80988 6.6977 8.28236 5.85278 7.74539 5.04484C7.48728 4.65648 7.23627 4.29162 7.04566 4.02204C5.32947 4.8718 4.03158 6.43884 3.54384 8.33131ZM4.81968 14.1967C5.14255 13.7244 5.56713 13.1929 6.1316 12.6145C7.34328 11.3732 8.77379 10.4065 10.4282 9.87277C10.4514 9.86594 10.467 9.86135 10.48 9.85752C10.3425 9.55427 10.2135 9.28377 10.0835 9.02852C8.55354 9.47394 6.94188 9.75252 5.33562 9.89685C4.55262 9.96719 3.85 9.99844 3.33329 10.0037C3.33414 11.5927 3.89092 13.0517 4.81968 14.1967ZM12.5037 16.1805C12.4167 15.7288 12.3057 15.2255 12.1582 14.645C11.8907 13.5927 11.5556 12.51 11.1441 11.4232C9.47596 12.0286 8.14641 12.9145 7.1192 13.9708C6.62416 14.4798 6.26033 14.9614 6.02198 15.3503C7.13239 16.1773 8.50904 16.6667 9.99996 16.6667C10.8855 16.6667 11.7307 16.494 12.5037 16.1805ZM14.0648 15.2845C15.3394 14.3027 16.2487 12.87 16.5543 11.2253C16.271 11.1554 15.9116 11.0838 15.5163 11.0289C14.6463 10.9081 13.7511 10.8879 12.8674 11.0015C13.2444 12.0637 13.5535 13.111 13.8006 14.1134C13.9085 14.5512 13.9965 14.9465 14.0648 15.2845ZM9.99996 18.3334C5.39758 18.3334 1.66663 14.6024 1.66663 10C1.66663 5.39765 5.39758 1.66669 9.99996 1.66669C14.6023 1.66669 18.3333 5.39765 18.3333 10C18.3333 14.6024 14.6023 18.3334 9.99996 18.3334Z" fill="white"/>
</svg>
