<svg width="180" height="180" viewBox="0 0 180 180" fill="none" xmlns="http://www.w3.org/2000/svg">
<rect width="180" height="180" rx="25" fill="#FF5730"/>
<path d="M42.654 128H26.754C25.4114 128 24.422 127.717 23.786 127.152C23.2207 126.516 22.938 125.527 22.938 124.184V55.496C22.938 54.1533 23.2207 53.1993 23.786 52.634C24.422 51.998 25.4114 51.68 26.754 51.68H37.778C39.1207 51.68 40.2514 51.892 41.17 52.316C42.1594 52.74 43.1134 53.482 44.032 54.542L64.596 78.074V55.496C64.596 54.1533 64.8787 53.1993 65.444 52.634C66.08 51.998 67.0694 51.68 68.412 51.68H84.312C85.6547 51.68 86.6087 51.998 87.174 52.634C87.81 53.1993 88.128 54.1533 88.128 55.496V124.184C88.128 125.527 87.81 126.516 87.174 127.152C86.6087 127.717 85.6547 128 84.312 128H68.412C67.0694 128 66.08 127.717 65.444 127.152C64.8787 126.516 64.596 125.527 64.596 124.184V111.146L46.47 89.204V124.184C46.47 125.527 46.152 126.516 45.516 127.152C44.9507 127.717 43.9967 128 42.654 128ZM138.153 128H104.657C103.314 128 102.325 127.717 101.689 127.152C101.123 126.516 100.841 125.527 100.841 124.184V111.782C100.841 110.439 101.123 109.485 101.689 108.92C102.325 108.284 103.314 107.966 104.657 107.966H133.171C134.089 107.966 134.761 107.683 135.185 107.118C135.679 106.482 135.927 105.74 135.927 104.892C135.927 103.691 135.679 102.807 135.185 102.242C134.761 101.677 134.089 101.359 133.171 101.288L117.271 99.062C112.324 98.3553 108.331 96.73 105.293 94.186C102.325 91.642 100.841 87.402 100.841 81.466V70.336C100.841 64.3293 102.784 59.736 106.671 56.556C110.557 53.3053 115.928 51.68 122.783 51.68H152.463C153.805 51.68 154.759 51.998 155.325 52.634C155.961 53.1993 156.279 54.1533 156.279 55.496V68.11C156.279 69.4527 155.961 70.442 155.325 71.078C154.759 71.6433 153.805 71.926 152.463 71.926H127.765C126.846 71.926 126.139 72.244 125.645 72.88C125.15 73.4453 124.903 74.1873 124.903 75.106C124.903 76.0247 125.15 76.802 125.645 77.438C126.139 78.074 126.846 78.4273 127.765 78.498L143.559 80.618C148.505 81.3247 152.498 82.95 155.537 85.494C158.575 88.038 160.095 92.278 160.095 98.214V109.344C160.095 115.351 158.116 119.979 154.159 123.23C150.272 126.41 144.937 128 138.153 128Z" fill="white"/>
</svg>
