<svg width="80" height="80" viewBox="0 0 80 80" fill="none" xmlns="http://www.w3.org/2000/svg">
<path d="M73.3334 44.7919C73.3334 57.3626 73.3334 63.6483 69.428 67.5534C65.523 71.4587 59.2373 71.4587 46.6666 71.4587H33.3333C20.7624 71.4587 14.477 71.4587 10.5717 67.5534C6.6665 63.6483 6.6665 57.3626 6.6665 44.7919C6.6665 32.221 6.6665 25.9356 10.5717 22.0303C14.477 18.125 20.7624 18.125 33.3333 18.125H46.6666C59.2373 18.125 65.523 18.125 69.428 22.0303C71.6404 24.2424 72.5994 27.2182 73.015 31.6676" stroke="white" stroke-width="4" stroke-linecap="round"/>
<path d="M13.2925 20C13.6672 16.8966 14.4496 14.752 16.0831 13.1242C19.2182 10 24.2641 10 34.356 10H45.0598C55.1517 10 60.1977 10 63.3327 13.1242C64.9663 14.752 65.7486 16.8966 66.1233 20" stroke="white" stroke-width="4"/>
<path d="M58.334 38.125C61.0954 38.125 63.334 35.8864 63.334 33.125C63.334 30.3636 61.0954 28.125 58.334 28.125C55.5726 28.125 53.334 30.3636 53.334 33.125C53.334 35.8864 55.5726 38.125 58.334 38.125Z" stroke="white" stroke-width="4"/>
<path d="M6.6665 46.4588L12.5051 41.3502C15.5427 38.6925 20.1207 38.8448 22.9748 41.6988L37.2737 55.9977C39.5644 58.2887 43.1704 58.6011 45.821 56.7381L46.815 56.0397C50.629 53.3591 55.7894 53.6698 59.2547 56.7884L69.9996 66.4587" stroke="white" stroke-width="4" stroke-linecap="round"/>
</svg>
