<svg width="48" height="48" viewBox="0 0 48 48" fill="none" xmlns="http://www.w3.org/2000/svg">
<g id="Icon">
<mask id="mask0_113_224" style="mask-type:alpha" maskUnits="userSpaceOnUse" x="0" y="0" width="48" height="48">
<rect id="Bounding Box" width="48" height="48" fill="white"/>
</mask>
<g mask="url(#mask0_113_224)">
<path id="Vector" d="M5.84536 10.8342L14.5939 16.6665L23.3152 4.45656C23.984 3.52029 25.2852 3.30344 26.2215 3.97219C26.4085 4.10581 26.5721 4.26948 26.7058 4.45656L35.4273 16.6665L44.1756 10.8342C45.1331 10.1959 46.4265 10.4546 47.0648 11.412C47.3392 11.8237 47.4581 12.3196 47.4004 12.811L43.9771 41.9099C43.8535 42.959 42.9644 43.7499 41.9079 43.7499H8.11313C7.05671 43.7499 6.1675 42.959 6.04407 41.9099L2.62067 12.811C2.48623 11.6683 3.30361 10.633 4.44632 10.4985C4.93773 10.4407 5.43367 10.5597 5.84536 10.8342ZM25.0106 31.2499C27.3117 31.2499 29.1773 29.3845 29.1773 27.0832C29.1773 24.782 27.3117 22.9165 25.0106 22.9165C22.7094 22.9165 20.844 24.782 20.844 27.0832C20.844 29.3845 22.7094 31.2499 25.0106 31.2499Z" stroke="black" stroke-width="2"/>
</g>
</g>
</svg>
