<svg width="20" height="20" viewBox="0 0 20 20" fill="none" xmlns="http://www.w3.org/2000/svg">
<path d="M5.78369 4.16663C5.78338 4.84522 5.37169 5.45587 4.74274 5.71063C4.11379 5.96539 3.39318 5.8134 2.92071 5.32631C2.44823 4.83922 2.31825 4.11431 2.59204 3.49341C2.86584 2.87251 3.48874 2.4796 4.16703 2.49996C5.06792 2.527 5.7841 3.26533 5.78369 4.16663ZM5.83369 7.06663H2.50036V17.4999H5.83369V7.06663ZM11.1004 7.06663H7.78369V17.4999H11.067V12.0249C11.067 8.97494 15.042 8.6916 15.042 12.0249V17.4999H18.3337V10.8916C18.3337 5.74996 12.4504 5.94163 11.067 8.4666L11.1004 7.06663Z" fill="white"/>
</svg>
