<svg viewBox="0 0 136 24" xmlns="http://www.w3.org/2000/svg" xmlns:xlink="http://www.w3.org/1999/xlink" width="136.000000" height="24.000000" fill="none" customFrame="#000000">
	<defs>
		<clipPath id="clipPath_0">
			<rect width="24.000000" height="24.000000" x="0.000000" y="0.000000" fill="rgb(255,255,255)" />
		</clipPath>
		<clipPath id="clipPath_1">
			<rect width="24.000000" height="24.000000" x="28.000000" y="0.000000" fill="rgb(255,255,255)" />
		</clipPath>
		<clipPath id="clipPath_2">
			<rect width="24.000000" height="24.000000" x="56.000000" y="0.000000" fill="rgb(255,255,255)" />
		</clipPath>
		<clipPath id="clipPath_3">
			<rect width="24.000000" height="24.000000" x="84.000000" y="0.000000" fill="rgb(255,255,255)" />
		</clipPath>
		<clipPath id="clipPath_4">
			<rect width="24.000000" height="24.000000" x="112.000000" y="0.000000" fill="rgb(255,255,255)" />
		</clipPath>
	</defs>
	<g id="Group 126">
		<g id="Frame" clip-path="url(#clipPath_0)" customFrame="url(#clipPath_0)">
			<rect id="Frame" width="24.000000" height="24.000000" x="0.000000" y="0.000000" fill="rgb(255,255,255)" fill-opacity="0" />
			<path id="Vector" d="M0 0L24 0L24 24L0 24L0 0Z" fill-rule="nonzero" />
			<path id="Vector" d="M8.24325 7.34L1.86325 8.265L1.75025 8.288C1.57919 8.33341 1.42325 8.42341 1.29835 8.5488C1.17344 8.67419 1.08406 8.83049 1.03932 9.00173C0.994575 9.17296 0.996081 9.35301 1.04368 9.52347C1.09128 9.69394 1.18327 9.84871 1.31025 9.972L5.93225 14.471L4.84225 20.826L4.82925 20.936C4.81878 21.1129 4.85552 21.2894 4.9357 21.4475C5.01589 21.6056 5.13664 21.7395 5.28559 21.8355C5.43454 21.9316 5.60634 21.9863 5.7834 21.9941C5.96046 22.0019 6.13642 21.9625 6.29325 21.88L11.9993 18.88L17.6923 21.88L17.7923 21.926C17.9573 21.991 18.1367 22.0109 18.312 21.9838C18.4873 21.9566 18.6522 21.8832 18.7898 21.7713C18.9275 21.6593 19.0328 21.5127 19.0951 21.3466C19.1574 21.1805 19.1743 21.0008 19.1443 20.826L18.0533 14.471L22.6773 9.971L22.7553 9.886C22.8667 9.74877 22.9397 9.58445 22.967 9.40979C22.9942 9.23514 22.9747 9.05638 22.9103 8.89173C22.846 8.72708 22.7392 8.58243 22.6007 8.47251C22.4623 8.36259 22.2972 8.29134 22.1223 8.266L15.7423 7.34L12.8903 1.56C12.8077 1.39253 12.68 1.25151 12.5214 1.1529C12.3629 1.05429 12.1799 1.00203 11.9933 1.00203C11.8066 1.00203 11.6236 1.05429 11.4651 1.1529C11.3065 1.25151 11.1788 1.39253 11.0963 1.56L8.24325 7.34Z" fill="rgb(255,87,48)" fill-rule="nonzero" />
		</g>
		<g id="Frame" clip-path="url(#clipPath_1)" customFrame="url(#clipPath_1)">
			<rect id="Frame" width="24.000000" height="24.000000" x="28.000000" y="0.000000" fill="rgb(255,255,255)" fill-opacity="0" />
			<path id="Vector" d="M28 0L52 0L52 24L28 24L28 0Z" fill-rule="nonzero" />
			<path id="Vector" d="M36.2433 7.34L29.8633 8.265L29.7503 8.288C29.5792 8.33341 29.4232 8.42341 29.2983 8.5488C29.1734 8.67419 29.0841 8.83049 29.0393 9.00173C28.9946 9.17296 28.9961 9.35301 29.0437 9.52347C29.0913 9.69394 29.1833 9.84871 29.3103 9.972L33.9323 14.471L32.8423 20.826L32.8293 20.936C32.8188 21.1129 32.8555 21.2894 32.9357 21.4475C33.0159 21.6056 33.1366 21.7395 33.2856 21.8355C33.4345 21.9316 33.6063 21.9863 33.7834 21.9941C33.9605 22.0019 34.1364 21.9625 34.2933 21.88L39.9993 18.88L45.6923 21.88L45.7923 21.926C45.9573 21.991 46.1367 22.0109 46.312 21.9838C46.4873 21.9566 46.6522 21.8832 46.7898 21.7713C46.9275 21.6593 47.0328 21.5127 47.0951 21.3466C47.1574 21.1805 47.1743 21.0008 47.1443 20.826L46.0533 14.471L50.6773 9.971L50.7553 9.886C50.8667 9.74877 50.9397 9.58445 50.967 9.40979C50.9942 9.23514 50.9747 9.05638 50.9103 8.89173C50.846 8.72708 50.7392 8.58243 50.6007 8.47251C50.4623 8.36259 50.2972 8.29134 50.1223 8.266L43.7423 7.34L40.8903 1.56C40.8077 1.39253 40.68 1.25151 40.5214 1.1529C40.3629 1.05429 40.18 1.00203 39.9933 1.00203C39.8066 1.00203 39.6236 1.05429 39.4651 1.1529C39.3065 1.25151 39.1788 1.39253 39.0963 1.56L36.2433 7.34Z" fill="rgb(255,87,48)" fill-rule="nonzero" />
		</g>
		<g id="Frame" clip-path="url(#clipPath_2)" customFrame="url(#clipPath_2)">
			<rect id="Frame" width="24.000000" height="24.000000" x="56.000000" y="0.000000" fill="rgb(255,255,255)" fill-opacity="0" />
			<path id="Vector" d="M56 0L80 0L80 24L56 24L56 0Z" fill-rule="nonzero" />
			<path id="Vector" d="M64.2433 7.34L57.8633 8.265L57.7503 8.288C57.5792 8.33341 57.4232 8.42341 57.2983 8.5488C57.1734 8.67419 57.0841 8.83049 57.0393 9.00173C56.9946 9.17296 56.9961 9.35301 57.0437 9.52347C57.0913 9.69394 57.1833 9.84871 57.3103 9.972L61.9323 14.471L60.8423 20.826L60.8293 20.936C60.8188 21.1129 60.8555 21.2894 60.9357 21.4475C61.0159 21.6056 61.1366 21.7395 61.2856 21.8355C61.4345 21.9316 61.6063 21.9863 61.7834 21.9941C61.9605 22.0019 62.1364 21.9625 62.2933 21.88L67.9993 18.88L73.6923 21.88L73.7923 21.926C73.9573 21.991 74.1367 22.0109 74.312 21.9838C74.4873 21.9566 74.6522 21.8832 74.7898 21.7713C74.9275 21.6593 75.0328 21.5127 75.0951 21.3466C75.1574 21.1805 75.1743 21.0008 75.1443 20.826L74.0533 14.471L78.6773 9.971L78.7552 9.886C78.8667 9.74877 78.9397 9.58445 78.967 9.40979C78.9942 9.23514 78.9747 9.05638 78.9103 8.89173C78.846 8.72708 78.7392 8.58243 78.6007 8.47251C78.4623 8.36259 78.2972 8.29134 78.1223 8.266L71.7423 7.34L68.8903 1.56C68.8077 1.39253 68.68 1.25151 68.5214 1.1529C68.3629 1.05429 68.1799 1.00203 67.9933 1.00203C67.8066 1.00203 67.6236 1.05429 67.4651 1.1529C67.3065 1.25151 67.1788 1.39253 67.0963 1.56L64.2433 7.34Z" fill="rgb(255,87,48)" fill-rule="nonzero" />
		</g>
		<g id="Frame" clip-path="url(#clipPath_3)" customFrame="url(#clipPath_3)">
			<rect id="Frame" width="24.000000" height="24.000000" x="84.000000" y="0.000000" fill="rgb(255,255,255)" fill-opacity="0" />
			<path id="Vector" d="M84 0L108 0L108 24L84 24L84 0Z" fill-rule="nonzero" />
			<path id="Vector" d="M92.2433 7.34L85.8633 8.265L85.7503 8.288C85.5792 8.33341 85.4232 8.42341 85.2983 8.5488C85.1734 8.67419 85.0841 8.83049 85.0393 9.00173C84.9946 9.17296 84.9961 9.35301 85.0437 9.52347C85.0913 9.69394 85.1833 9.84871 85.3103 9.972L89.9323 14.471L88.8423 20.826L88.8293 20.936C88.8188 21.1129 88.8555 21.2894 88.9357 21.4475C89.0159 21.6056 89.1366 21.7395 89.2856 21.8355C89.4345 21.9316 89.6063 21.9863 89.7834 21.9941C89.9605 22.0019 90.1364 21.9625 90.2933 21.88L95.9993 18.88L101.692 21.88L101.792 21.926C101.957 21.991 102.137 22.0109 102.312 21.9838C102.487 21.9566 102.652 21.8832 102.79 21.7713C102.927 21.6593 103.033 21.5127 103.095 21.3466C103.157 21.1805 103.174 21.0008 103.144 20.826L102.053 14.471L106.677 9.971L106.755 9.886C106.867 9.74877 106.94 9.58445 106.967 9.40979C106.994 9.23514 106.975 9.05638 106.91 8.89173C106.846 8.72708 106.739 8.58243 106.601 8.47251C106.462 8.36259 106.297 8.29134 106.122 8.266L99.7423 7.34L96.8903 1.56C96.8077 1.39253 96.68 1.25151 96.5214 1.1529C96.3629 1.05429 96.1799 1.00203 95.9933 1.00203C95.8066 1.00203 95.6236 1.05429 95.4651 1.1529C95.3065 1.25151 95.1788 1.39253 95.0963 1.56L92.2433 7.34Z" fill="rgb(255,87,48)" fill-rule="nonzero" />
		</g>
		<g id="Frame" clip-path="url(#clipPath_4)" customFrame="url(#clipPath_4)">
			<rect id="Frame" width="24.000000" height="24.000000" x="112.000000" y="0.000000" fill="rgb(255,255,255)" fill-opacity="0" />
			<path id="Vector" d="M112 0L136 0L136 24L112 24L112 0Z" fill-rule="nonzero" />
			<path id="Vector" d="M120.243 7.34L113.863 8.265L113.75 8.288C113.579 8.33341 113.423 8.42341 113.298 8.5488C113.173 8.67419 113.084 8.83049 113.039 9.00173C112.995 9.17296 112.996 9.35301 113.044 9.52347C113.091 9.69394 113.183 9.84871 113.31 9.972L117.932 14.471L116.842 20.826L116.829 20.936C116.819 21.1129 116.856 21.2894 116.936 21.4475C117.016 21.6056 117.137 21.7395 117.286 21.8355C117.435 21.9316 117.606 21.9863 117.783 21.9941C117.96 22.0019 118.136 21.9625 118.293 21.88L123.999 18.88L129.692 21.88L129.792 21.926C129.957 21.991 130.137 22.0109 130.312 21.9838C130.487 21.9566 130.652 21.8832 130.79 21.7713C130.927 21.6593 131.033 21.5127 131.095 21.3466C131.157 21.1805 131.174 21.0008 131.144 20.826L130.053 14.471L134.677 9.971L134.755 9.886C134.867 9.74877 134.94 9.58445 134.967 9.40979C134.994 9.23514 134.975 9.05638 134.91 8.89173C134.846 8.72708 134.739 8.58243 134.601 8.47251C134.462 8.36259 134.297 8.29134 134.122 8.266L127.742 7.34L124.89 1.56C124.808 1.39253 124.68 1.25151 124.521 1.1529C124.363 1.05429 124.18 1.00203 123.993 1.00203C123.807 1.00203 123.624 1.05429 123.465 1.1529C123.307 1.25151 123.179 1.39253 123.096 1.56L120.243 7.34Z" fill="rgb(255,87,48)" fill-rule="nonzero" />
		</g>
	</g>
</svg>
